mtllib bathtub.mtl
o Cube.006
v 1.676845 -0.053232 6.623233
v 1.676846 1.078191 6.623233
v -1.636865 1.078191 6.623233
v -1.636867 -0.053231 6.623233
v -1.636864 -0.053231 5.005777
v -1.636862 1.078191 5.005777
v 1.676850 1.078191 5.005777
v 1.676847 -0.053232 5.005777
v 1.676847 1.078191 6.452525
v 1.676848 1.078191 5.176486
v 1.588064 0.916306 5.210675
v 1.588064 0.916306 5.754696
v 1.588063 0.916306 5.874314
v 1.588063 0.916306 6.418336
v 2.009331 -0.053232 5.877700
v 2.009332 0.570935 5.877700
v 2.009332 1.078191 5.877701
v 2.009332 1.078191 6.452526
v 2.009331 -0.053232 6.452525
v -1.548079 0.916307 6.418335
v 1.538906 0.805365 6.399407
v -1.498922 0.805366 6.399406
v -1.636863 1.078191 5.751310
v -1.636863 1.078191 5.877701
v -1.636864 1.078191 6.452525
v -1.548079 0.916307 5.874314
v -1.548079 0.916307 5.754696
v -1.548078 0.916307 5.210674
v -1.636863 1.078191 5.176485
v 1.457343 0.638955 6.367999
v -1.417359 0.638956 6.367998
v 1.538907 0.805365 5.229604
v 1.538907 0.805365 5.756571
v -1.498922 0.805366 5.229603
v -1.498922 0.805366 5.872439
v 1.457343 0.638955 5.261013
v -1.417359 0.638956 5.261012
v -1.335276 0.484873 5.292621
v 1.375260 0.484872 5.292621
v 1.457343 0.638955 5.759682
v -1.417359 0.638956 5.869328
v -1.335276 0.484873 5.866198
v -1.335276 0.484873 6.336390
v -1.249400 0.361605 6.303321
v -1.249400 0.361605 5.862922
v 1.375260 0.484872 6.336390
v 1.375260 0.484872 5.762813
v 1.289384 0.361605 6.303321
v 1.167885 0.201358 6.256534
v -1.127902 0.201358 6.256534
v 1.289385 0.361605 5.325690
v 1.289385 0.361605 5.766088
v -1.249400 0.361605 5.325689
v 1.167886 0.201358 5.372477
v -1.127901 0.201358 5.372476
v -0.998557 0.078092 5.422284
v 1.038541 0.078092 5.422284
v 1.167885 0.201358 5.770722
v -1.127901 0.201358 5.858288
v -0.998557 0.078092 5.853354
v -0.998557 0.078092 6.206727
v 1.038541 0.078092 6.206727
v 1.038541 0.078092 5.853354
v 1.038541 0.078092 5.775656
v 1.167885 0.201358 5.858288
v -1.127901 0.201358 5.770722
v -0.998557 0.078092 5.775656
v -1.249400 0.361605 5.766088
v 1.289384 0.361605 5.862922
v 1.375260 0.484872 5.866198
v 1.457343 0.638955 5.869328
v -1.417359 0.638956 5.759682
v -1.335276 0.484873 5.762813
v -1.498922 0.805366 5.756571
v 1.538907 0.805365 5.872439
v -2.090262 -0.053231 4.956623
v 2.130244 -0.053232 4.956623
v 2.009331 -0.053232 5.176486
v 2.009331 -0.053232 5.751309
v 2.130244 -0.053232 6.672388
v -2.090263 -0.053231 6.672388
v -1.969350 -0.053231 6.452524
v -1.969350 -0.053231 5.176485
v 2.009332 1.078191 5.176486
v 2.009332 1.078191 5.751310
v 2.009332 0.570935 5.751309
v 2.184785 0.454023 5.751309
v 2.184785 0.454023 5.877701
v 2.009333 1.078191 5.005778
v -1.969349 1.078191 5.176485
v -1.969349 1.078191 6.452524
v -1.969349 1.078191 5.877701
v -1.969349 1.078191 5.751310
v -1.969349 1.078191 5.005777
v 2.009331 1.078191 6.623233
v -1.969349 1.078191 6.623233
v 2.184787 1.433169 5.751310
v 2.009334 1.300869 5.751309
v 1.516680 1.300869 5.751309
v 1.516680 1.433170 5.751309
v 1.676848 1.078191 5.879974
v 2.009332 1.078191 5.879974
v 2.009333 1.300869 5.877700
v 1.516680 1.300869 5.877700
v 1.516680 1.433170 5.877700
v 2.184786 1.433169 5.877701
v 1.383133 1.433170 5.877700
v 1.383133 1.300869 5.877700
v 1.383133 1.300869 5.751309
v 1.383133 1.433170 5.751309
v 1.613060 1.221431 5.660095
v 1.286753 1.221431 5.660095
v 1.516680 1.442873 5.877700
v 1.383133 1.442874 5.877700
v 1.613059 1.221431 5.968915
v 1.286752 1.221431 5.968915
v 1.541075 1.451243 5.900788
v 1.358738 1.451243 5.900788
v 1.383133 1.442874 5.751309
v 1.516680 1.442873 5.751309
v 1.541075 1.451243 5.728223
v 1.358738 1.451243 5.728222
v 1.358738 1.498668 5.728222
v 1.541075 1.498668 5.728223
v 1.541075 1.498668 5.900788
v 1.499944 1.518196 5.767149
v 1.499944 1.518196 5.861862
v 1.358738 1.498668 5.900788
v 1.399869 1.518196 5.767149
v 1.399869 1.518196 5.861862
v 1.676847 1.078191 5.749036
v 2.009332 1.078191 5.749036
vt 0.026676 0.098302
vt 0.419158 0.098302
vt 0.419158 0.490783
vt 0.026676 0.490783
vt 0.026676 0.098302
vt 0.419158 0.098302
vt 0.419158 0.490783
vt 0.026676 0.490783
vt 0.026676 0.098302
vt 0.419158 0.098302
vt 0.419158 0.490783
vt 0.419158 0.490783
vt 0.419158 0.490783
vt 0.026676 0.490783
vt 0.026676 0.098302
vt 0.026676 0.098302
vt 0.419158 0.098302
vt 0.419158 0.490783
vt 0.026676 0.490783
vt 0.026676 0.098302
vt 0.419158 0.098302
vt 0.419158 0.490783
vt 0.026676 0.490783
vt 0.222917 0.490783
vt 0.361680 0.433306
vt 0.419158 0.294543
vt 0.361680 0.155779
vt 0.222917 0.098302
vt 0.084153 0.155779
vt 0.026676 0.294543
vt 0.084153 0.433306
vt 0.026676 0.098302
vt 0.419158 0.098302
vt 0.419158 0.490783
vt 0.026676 0.490783
vt 0.026676 0.098302
vt 0.419158 0.098302
vt 0.419158 0.490783
vt 0.026676 0.490783
vt 0.026676 0.098302
vt 0.419158 0.098302
vt 0.419158 0.490783
vt 0.026676 0.490783
vt 0.026676 0.098302
vt 0.419158 0.098302
vt 0.419158 0.490783
vt 0.026676 0.490783
vt 0.026676 0.098302
vt 0.419158 0.098302
vt 0.419158 0.490783
vt 0.026676 0.490783
vt 0.026676 0.098302
vt 0.419158 0.098302
vt 0.419158 0.490783
vt 0.026676 0.490783
vt 0.026676 0.098302
vt 0.419158 0.098302
vt 0.419158 0.490783
vt 0.026676 0.490783
vt 0.026676 0.098302
vt 0.419158 0.098302
vt 0.419158 0.490783
vt 0.026676 0.490783
vt 0.026676 0.098302
vt 0.419158 0.098302
vt 0.419158 0.490783
vt 0.026676 0.490783
vt 0.026676 0.098302
vt 0.419158 0.098302
vt 0.419158 0.490783
vt 0.026676 0.490783
vt 0.026676 0.098302
vt 0.419158 0.098302
vt 0.419158 0.490783
vt 0.026676 0.490783
vt 0.026676 0.098302
vt 0.419158 0.098302
vt 0.419158 0.490783
vt 0.026676 0.490783
vt 0.026676 0.098302
vt 0.419158 0.098302
vt 0.419158 0.490783
vt 0.026676 0.490783
vt 0.026676 0.098302
vt 0.419158 0.098302
vt 0.419158 0.490783
vt 0.026676 0.490783
vt 0.026676 0.098302
vt 0.419158 0.098302
vt 0.419158 0.490783
vt 0.026676 0.490783
vt 0.026676 0.098302
vt 0.419158 0.098302
vt 0.419158 0.490783
vt 0.026676 0.490783
vt 0.026676 0.098302
vt 0.419158 0.098302
vt 0.419158 0.490783
vt 0.026676 0.490783
vt 0.026676 0.098302
vt 0.419158 0.098302
vt 0.419158 0.490783
vt 0.026676 0.490783
vt 0.026676 0.098302
vt 0.419158 0.098302
vt 0.419158 0.490783
vt 0.026676 0.490783
vt 0.026676 0.098302
vt 0.419158 0.098302
vt 0.419158 0.490783
vt 0.026676 0.490783
vt 0.026676 0.098302
vt 0.419158 0.098302
vt 0.419158 0.490783
vt 0.026676 0.490783
vt 0.026676 0.098302
vt 0.419158 0.098302
vt 0.419158 0.490783
vt 0.026676 0.490783
vt 0.026676 0.098302
vt 0.419158 0.098302
vt 0.419158 0.490783
vt 0.026676 0.490783
vt 0.026676 0.098302
vt 0.419158 0.098302
vt 0.419158 0.490783
vt 0.026676 0.490783
vt 0.026676 0.098302
vt 0.419158 0.098302
vt 0.026676 0.490783
vt 0.026676 0.098302
vt 0.419158 0.098302
vt 0.419158 0.490783
vt 0.026676 0.490783
vt 0.026676 0.098302
vt 0.419158 0.098302
vt 0.419158 0.490783
vt 0.026676 0.490783
vt 0.026676 0.098302
vt 0.419158 0.098302
vt 0.419158 0.490783
vt 0.026676 0.098302
vt 0.419158 0.098302
vt 0.419158 0.490783
vt 0.026676 0.490783
vt 0.026676 0.098302
vt 0.419158 0.098302
vt 0.419158 0.490783
vt 0.026676 0.490783
vt 0.026676 0.098302
vt 0.419158 0.098302
vt 0.026676 0.098302
vt 0.419158 0.098302
vt 0.026676 0.098302
vt 0.419158 0.098302
vt 0.419158 0.490783
vt 0.026676 0.490783
vt 0.026676 0.098302
vt 0.419158 0.098302
vt 0.419158 0.490783
vt 0.026676 0.490783
vt 0.026676 0.098302
vt 0.419158 0.098302
vt 0.419158 0.490783
vt 0.026676 0.490783
vt 0.026676 0.098302
vt 0.419158 0.098302
vt 0.419158 0.490783
vt 0.026676 0.490783
vt 0.026676 0.098302
vt 0.419158 0.098302
vt 0.419158 0.490783
vt 0.026676 0.490783
vt 0.026676 0.098302
vt 0.419158 0.098302
vt 0.419158 0.490783
vt 0.026676 0.490783
vt 0.026676 0.098302
vt 0.419158 0.098302
vt 0.419158 0.490783
vt 0.026676 0.490783
vt 0.026676 0.098302
vt 0.419158 0.098302
vt 0.419158 0.490783
vt 0.026676 0.490783
vt 0.026676 0.098302
vt 0.419158 0.098302
vt 0.419158 0.490783
vt 0.026676 0.490783
vt 0.026676 0.098302
vt 0.419158 0.098302
vt 0.419158 0.490783
vt 0.026676 0.490783
vt 0.026676 0.098302
vt 0.419158 0.098302
vt 0.419158 0.490783
vt 0.026676 0.490783
vt 0.026676 0.098302
vt 0.419158 0.098302
vt 0.419158 0.490783
vt 0.026676 0.490783
vt 0.026676 0.098302
vt 0.419158 0.098302
vt 0.419158 0.490783
vt 0.026676 0.490783
vt 0.026676 0.098302
vt 0.419158 0.098302
vt 0.419158 0.490783
vt 0.026676 0.490783
vt 0.026676 0.098302
vt 0.419158 0.098302
vt 0.419158 0.490783
vt 0.026676 0.490783
vt 0.026676 0.098302
vt 0.419158 0.098302
vt 0.419158 0.490783
vt 0.026676 0.490783
vt 0.026676 0.098302
vt 0.419158 0.098302
vt 0.419158 0.490783
vt 0.026676 0.490783
vt 0.026676 0.098302
vt 0.419158 0.098302
vt 0.419158 0.490783
vt 0.026676 0.490783
vt 0.026676 0.098302
vt 0.419158 0.098302
vt 0.419158 0.490783
vt 0.026676 0.490783
vt 0.026676 0.098302
vt 0.419158 0.098302
vt 0.419158 0.490783
vt 0.026676 0.490783
vt 0.026676 0.098302
vt 0.026676 0.098302
vt 0.419158 0.098302
vt 0.419158 0.098302
vt 0.419158 0.098302
vt 0.419158 0.098302
vt 0.419158 0.098302
vt 0.419158 0.490783
vt 0.419158 0.490783
vt 0.419158 0.490783
vt 0.026676 0.490783
vt 0.026676 0.490783
vt 0.026676 0.490783
vt 0.026676 0.098302
vt 0.419158 0.098302
vt 0.419158 0.490783
vt 0.419158 0.490783
vt 0.026676 0.490783
vt 0.026676 0.098302
vt 0.419158 0.098302
vt 0.419158 0.490783
vt 0.026676 0.490783
vt 0.739557 0.828929
vt 0.830533 0.828929
vt 0.830533 0.919906
vt 0.739557 0.919906
vt 0.026676 0.098302
vt 0.419158 0.098302
vt 0.419158 0.490783
vt 0.026676 0.490783
vt 0.222917 0.490783
vt 0.419158 0.294543
vt 0.222917 0.098302
vt 0.026676 0.294543
vt 0.052967 0.392663
vt 0.124796 0.464492
vt 0.026676 0.098302
vt 0.419158 0.098302
vt 0.419158 0.490783
vt 0.026676 0.490783
vt 0.419158 0.098302
vt 0.419158 0.490783
vt 0.026676 0.490783
vt 0.026676 0.098302
vt 0.419158 0.098302
vt 0.419158 0.490783
vt 0.026676 0.490783
vt 0.026676 0.098302
vt 0.419158 0.098302
vt 0.419158 0.490783
vt 0.026676 0.490783
vt 0.026676 0.098302
vt 0.419158 0.098302
vt 0.419158 0.490783
vt 0.026676 0.098302
vt 0.419158 0.098302
vt 0.419158 0.490783
vt 0.026676 0.490783
vt 0.419158 0.098302
vt 0.419158 0.490783
vt 0.026676 0.490783
vt 0.739557 0.919906
vt 0.830533 0.828929
vt 0.830533 0.919906
vt 0.830533 0.828929
vt 0.830533 0.828929
vt 0.830533 0.919906
vt 0.739557 0.919906
vt 0.419158 0.229129
vt 0.419158 0.359956
vt 0.830533 0.828929
vt 0.830533 0.919906
vt 0.739557 0.919906
vt 0.739557 0.828929
vt 0.830533 0.919906
vt 0.739557 0.919906
vt 0.830533 0.919906
vt 0.739557 0.828929
vt 0.830533 0.828929
vt 0.830533 0.919906
vt 0.739557 0.919906
vt 0.739557 0.828929
vt 0.830533 0.828929
vt 0.739557 0.919906
vt 0.830533 0.828929
vt 0.830533 0.919906
vt 0.739557 0.919906
vt 0.739557 0.828929
vt 0.830533 0.919906
vt 0.739557 0.828929
vt 0.830533 0.919906
vt 0.739557 0.919906
vt 0.739557 0.828929
vt 0.830533 0.828929
vt 0.830533 0.919906
vt 0.739557 0.828929
vt 0.830533 0.828929
vt 0.830533 0.919906
vt 0.739557 0.919906
vt 0.739557 0.919906
vt 0.739557 0.828929
vt 0.830533 0.828929
vt 0.830533 0.919906
vt 0.739557 0.919906
vt 0.739557 0.828929
vt 0.830533 0.828929
vt 0.830533 0.919906
vt 0.739557 0.919906
vt 0.830533 0.828929
vt 0.830533 0.919906
vt 0.739557 0.919906
vt 0.739557 0.828929
vt 0.830533 0.828929
vt 0.830533 0.919906
vt 0.739557 0.919906
vt 0.739557 0.828929
vt 0.830533 0.828929
vt 0.830533 0.919906
vt 0.739557 0.919906
vt 0.739557 0.828929
vt 0.830533 0.828929
vt 0.830533 0.919906
vt 0.739557 0.919906
vt 0.739557 0.828929
vt 0.830533 0.828929
vt 0.830533 0.919906
vt 0.739557 0.919906
vt 0.739557 0.828929
vt 0.830533 0.828929
vt 0.830533 0.919906
vt 0.739557 0.919906
vt 0.739557 0.828929
vt 0.830533 0.828929
vt 0.830533 0.919906
vt 0.739557 0.919906
vt 0.739557 0.828929
vt 0.830533 0.828929
vt 0.830533 0.919906
vt 0.739557 0.919906
vt 0.739557 0.828929
vt 0.830533 0.828929
vt 0.830533 0.919906
vt 0.739557 0.919906
vt 0.739557 0.828929
vt 0.830533 0.828929
vt 0.830533 0.919906
vt 0.739557 0.919906
vt 0.739557 0.828929
vt 0.830533 0.828929
vt 0.830533 0.919906
vt 0.739557 0.919906
vt 0.739557 0.828929
vt 0.830533 0.828929
vt 0.830533 0.919906
vt 0.739557 0.919906
vt 0.739557 0.828929
vt 0.830533 0.828929
vt 0.830533 0.919906
vt 0.739557 0.828929
vt 0.830533 0.828929
vt 0.739557 0.919906
vt 0.739557 0.828929
vt 0.830533 0.828929
vt 0.830533 0.919906
vt 0.739557 0.919906
vt 0.052538 0.962560
vt 0.051836 0.602448
vt 0.389831 0.602448
vt 0.389129 0.962560
vt 0.739557 0.828929
vt 0.830533 0.919906
vt 0.739557 0.919906
vt 0.268614 0.514171
vt 0.225330 0.185396
vt 0.263763 0.170063
vt 0.305783 0.485650
vt 0.419158 0.359956
vt 0.419158 0.229129
vt 0.830533 0.859255
vt 0.830533 0.889580
vn 0.0000 -0.0000 1.0000
vn 0.0000 0.0000 -1.0000
vn -0.8768 0.4809 -0.0000
vn 1.0000 -0.0000 0.0000
vn 0.0000 0.1682 -0.9858
vn 0.8768 0.4809 0.0000
vn -0.0000 0.2066 0.9784
vn 0.0000 0.2066 -0.9784
vn 0.0000 0.1855 -0.9827
vn -0.9143 0.4051 -0.0000
vn -0.0000 0.1682 0.9858
vn 0.9143 0.4051 0.0000
vn -0.0000 0.2010 0.9796
vn -0.8979 0.4401 0.0000
vn -0.0000 0.1855 0.9827
vn 0.8979 0.4401 0.0000
vn 0.8205 0.5716 0.0000
vn 0.8826 0.4702 0.0000
vn 0.0000 0.2010 -0.9796
vn -0.8826 0.4702 0.0000
vn -0.0000 0.2803 -0.9599
vn -0.0000 0.2591 -0.9658
vn -0.8205 0.5716 -0.0000
vn -0.0000 0.2591 0.9658
vn 0.0000 0.3746 0.9272
vn -0.7969 0.6042 -0.0000
vn 0.0000 0.2803 0.9599
vn 0.7969 0.6042 0.0000
vn 0.0000 1.0000 -0.0000
vn 0.6899 0.7239 0.0000
vn 0.0000 0.3746 -0.9272
vn -0.6899 0.7239 -0.0000
vn -0.0000 -1.0000 0.0000
vn 0.9451 -0.3269 0.0000
vn 0.9543 0.0446 0.2954
vn -1.0000 0.0000 0.0000
vn -0.9543 0.0446 0.2954
vn 0.0624 0.0183 -0.9979
vn -0.0624 0.0183 0.9979
vn -0.9543 0.0446 -0.2954
vn 0.0624 0.0183 0.9979
vn 0.9543 0.0446 -0.2954
vn -0.0624 0.0183 -0.9979
vn 0.0000 0.7541 -0.6567
vn -0.6360 0.7717 -0.0000
vn -0.0000 0.7541 0.6567
vn 0.6360 0.7717 0.0000
vn -0.0000 -0.9401 0.3408
vn -0.0000 -0.9401 -0.3408
vn -0.3245 -0.9459 0.0000
vn 0.3245 -0.9459 0.0000
vn 0.4289 0.9034 0.0000
vn 0.0000 0.8938 0.4484
vn 0.0000 0.8938 -0.4484
vn -0.4289 0.9034 0.0000
usemtl Material.006
s 1
f 1/1/1 2/2/1 3/3/1 4/4/1
f 5/5/2 6/6/2 7/7/2 8/8/2
f 9/9/3 10/10/3 11/11/3 12/12/3 13/13/3 14/14/3
f 15/15/4 16/16/4 17/17/4 18/18/4 19/19/4
f 20/20/5 14/21/5 21/22/5 22/23/5
f 23/24/6 24/25/6 25/26/6 20/27/6 26/28/6 27/29/6 28/30/6 29/31/6
f 10/32/7 29/33/7 28/34/7 11/35/7
f 25/36/8 9/37/8 14/38/8 20/39/8
f 22/40/9 21/41/9 30/42/9 31/43/9
f 12/44/10 11/45/10 32/46/10 33/47/10
f 11/48/11 28/49/11 34/50/11 32/51/11
f 26/52/12 20/53/12 22/54/12 35/55/12
f 36/56/13 37/57/13 38/58/13 39/59/13
f 33/60/14 32/61/14 36/62/14 40/63/14
f 32/64/15 34/65/15 37/66/15 36/67/15
f 35/68/16 22/69/16 31/70/16 41/71/16
f 42/72/17 43/73/17 44/74/17 45/75/17
f 41/76/18 31/77/18 43/78/18 42/79/18
f 31/80/19 30/81/19 46/82/19 43/83/19
f 40/84/20 36/85/20 39/86/20 47/87/20
f 44/88/21 48/89/21 49/90/21 50/91/21
f 43/92/22 46/93/22 48/94/22 44/95/22
f 47/96/23 39/97/23 51/98/23 52/99/23
f 39/100/24 38/101/24 53/102/24 51/103/24
f 54/104/25 55/105/25 56/106/25 57/107/25
f 52/108/26 51/109/26 54/110/26 58/111/26
f 51/112/27 53/113/27 55/114/27 54/115/27
f 45/116/28 44/117/28 50/118/28 59/119/28
f 60/120/29 61/121/29 62/122/29 63/123/29
f 59/124/30 50/125/30 61/126/30 60/127/30
f 50/128/31 49/129/31 62/122/31 61/130/31
f 58/131/32 54/132/32 57/133/32 64/134/32
f 49/135/32 65/136/32 63/137/32 62/138/32
f 65/139/32 58/140/32 64/141/32 63/123/32
f 55/142/30 66/143/30 67/144/30 56/145/30
f 66/146/30 59/147/30 60/148/30 67/149/30
f 56/150/29 67/151/29 64/141/29 57/107/29
f 67/152/29 60/153/29 63/137/29 64/134/29
f 53/154/28 68/155/28 66/156/28 55/157/28
f 68/158/28 45/159/28 59/160/28 66/161/28
f 48/162/26 69/163/26 65/164/26 49/165/26
f 69/166/26 52/167/26 58/168/26 65/169/26
f 46/170/23 70/171/23 69/172/23 48/173/23
f 70/174/23 47/175/23 52/176/23 69/177/23
f 30/178/20 71/179/20 70/180/20 46/181/20
f 71/182/20 40/183/20 47/184/20 70/185/20
f 37/186/18 72/187/18 73/188/18 38/189/18
f 72/190/18 41/191/18 42/192/18 73/193/18
f 38/194/17 73/195/17 68/196/17 53/197/17
f 73/198/17 42/199/17 45/200/17 68/201/17
f 34/202/16 74/203/16 72/204/16 37/205/16
f 74/206/16 35/207/16 41/208/16 72/209/16
f 21/210/14 75/211/14 71/212/14 30/213/14
f 75/214/14 33/215/14 40/216/14 71/217/14
f 28/218/12 27/219/12 74/220/12 34/221/12
f 27/222/12 26/223/12 35/224/12 74/225/12
f 14/226/10 13/227/10 75/228/10 21/229/10
f 13/230/10 12/231/10 33/232/10 75/233/10
f 76/234/33 5/5/33 8/235/33 77/236/33 78/237/33 79/238/33 15/239/33 19/240/33 80/241/33 1/242/33 4/243/33 81/244/33 82/245/33 83/246/33
f 78/247/4 84/248/4 85/249/4 86/250/4 79/251/4
f 86/252/4 85/253/4 17/254/4 16/255/4
f 15/256/34 79/257/34 87/258/34 88/259/34
f 77/260/35 89/261/35 84/262/35 78/263/35
f 90/264/36 83/265/36 82/266/36 91/267/36 92/268/36 93/269/36
f 94/270/37 76/271/37 83/272/37 90/273/37
f 76/234/38 94/274/38 6/275/38 5/276/38
f 80/277/39 95/278/39 2/279/39 1/280/39
f 91/281/40 82/282/40 81/283/40 96/284/40
f 4/285/41 3/286/41 96/287/41 81/244/41
f 19/288/42 18/289/42 95/290/42 80/291/42
f 8/235/43 7/292/43 89/293/43 77/294/43
f 97/295/2 87/296/2 79/297/2 86/298/2 98/299/2 99/300/2 100/301/2
f 7/292/29 101/302/29 102/303/29 89/293/29
f 103/304/33 104/305/33 99/306/33 98/307/33
f 97/295/29 100/308/29 105/309/29 106/310/29
f 104/311/1 105/312/1 107/313/1 108/314/1
f 109/315/36 108/316/36 107/313/36 110/317/36
f 109/315/44 99/318/44 111/319/44 112/320/44
f 100/321/2 99/318/2 109/322/2 110/317/2
f 107/323/1 105/312/1 113/324/1 114/325/1
f 103/304/1 106/310/1 105/312/1 104/305/1
f 111/326/33 115/327/33 116/328/33 112/320/33
f 108/329/45 109/330/45 112/331/45 116/332/45
f 104/311/46 108/316/46 116/328/46 115/333/46
f 99/334/47 104/335/47 115/336/47 111/337/47
f 114/338/48 113/339/48 117/340/48 118/341/48
f 100/321/2 110/342/2 119/343/2 120/344/2
f 110/345/36 107/346/36 114/347/36 119/348/36
f 105/349/4 100/350/4 120/351/4 113/352/4
f 121/353/2 122/354/2 123/355/2 124/356/2
f 120/357/49 119/358/49 122/359/49 121/360/49
f 119/361/50 114/362/50 118/363/50 122/364/50
f 113/365/51 120/366/51 121/367/51 117/368/51
f 125/369/52 124/370/52 126/371/52 127/372/52
f 122/373/36 118/374/36 128/375/36 123/376/36
f 117/377/4 121/378/4 124/379/4 125/380/4
f 118/381/1 117/382/1 125/383/1 128/384/1
f 127/385/29 126/386/29 129/387/29 130/388/29
f 128/389/53 125/390/53 127/391/53 130/388/53
f 124/392/54 123/393/54 129/387/54 126/394/54
f 123/395/55 128/396/55 130/397/55 129/398/55
f 28/399/29 20/400/29 14/401/29 11/402/29
f 87/403/4 97/404/4 106/405/4 88/259/4
f 93/406/29 92/407/29 24/408/29 23/409/29
f 7/7/29 6/6/29 29/33/29 10/32/29
f 2/2/29 9/37/29 25/36/29 3/3/29
f 92/407/29 91/267/29 25/26/29 24/408/29
f 23/409/29 29/31/29 90/264/29 93/406/29
f 131/410/29 2/279/29 95/278/29 132/411/29
f 94/270/29 90/273/29 29/31/29 6/6/29
f 91/267/29 96/287/29 3/3/29 25/26/29
f 98/307/36 132/412/36 102/413/36 103/304/36
f 106/405/1 103/304/1 15/256/1 88/259/1
