mtllib ogrito.mtl
o Cube.002
v 4.026593 2.904045 -6.762376
v 4.026593 2.904045 -6.715252
v 2.709121 2.904045 -6.715252
v 2.709121 2.904045 -6.762376
v 4.026593 4.880254 -6.762376
v 2.709121 4.880254 -6.762376
v 2.709121 4.880254 -6.715251
v 4.026593 4.880254 -6.715251
vt 0.356085 0.971624
vt 0.357457 0.972583
vt 0.327694 0.974002
vt 0.328686 0.973197
vt 0.356630 0.950696
vt 0.328964 0.953032
vt 0.327694 0.952316
vt 0.357738 0.949591
vt 0.935454 0.063074
vt 0.935453 0.968389
vt 0.057476 0.968389
vt 0.057476 0.063074
vn 0.0000 -1.0000 0.0000
vn 0.0000 1.0000 -0.0000
vn 1.0000 -0.0000 0.0000
vn 0.0000 -0.0000 1.0000
vn -1.0000 -0.0000 0.0000
usemtl Material.002
s 1
f 1/1/1 2/2/1 3/3/1 4/4/1
f 5/5/2 6/6/2 7/7/2 8/8/2
f 1/1/3 5/5/3 8/8/3 2/2/3
f 2/9/4 8/10/4 7/11/4 3/12/4
f 3/3/5 7/7/5 6/6/5 4/4/5
