mtllib trigger_quarto3.mtl
o Cube.002
v -2.269653 -0.661331 1.304438
v -2.269653 -0.661331 6.895090
v -5.310634 -0.661331 6.895090
v -5.310633 -0.661331 1.304437
v -2.269652 1.338669 1.304439
v -2.269654 1.338669 6.895092
v -5.310634 1.338669 6.895089
v -5.310633 1.338669 1.304438
vn 0.0000 -1.0000 -0.0000
vn 0.0000 1.0000 -0.0000
vn 1.0000 0.0000 0.0000
vn -0.0000 -0.0000 1.0000
vn -1.0000 -0.0000 -0.0000
vn 0.0000 0.0000 -1.0000
usemtl Material
s off
f 1//1 2//1 3//1 4//1
f 5//2 8//2 7//2 6//2
f 1//3 5//3 6//3 2//3
f 2//4 6//4 7//4 3//4
f 3//5 7//5 8//5 4//5
f 5//6 1//6 4//6 8//6
