mtllib trigger_quarto.mtl
o Cube
v -2.167257 -0.661331 -6.731314
v -2.167257 -0.661331 -1.080997
v -9.883190 -0.661331 -1.080998
v -9.883188 -0.661331 -6.731315
v -2.167255 1.338669 -6.731313
v -2.167260 1.338669 -1.080996
v -9.883192 1.338669 -1.080998
v -9.883190 1.338669 -6.731314
vn 0.0000 -1.0000 -0.0000
vn 0.0000 1.0000 0.0000
vn 1.0000 0.0000 0.0000
vn -0.0000 -0.0000 1.0000
vn -1.0000 -0.0000 -0.0000
vn 0.0000 0.0000 -1.0000
usemtl Material
s off
f 1//1 2//1 3//1 4//1
f 5//2 8//2 7//2 6//2
f 1//3 5//3 6//3 2//3
f 2//4 6//4 7//4 3//4
f 3//5 7//5 8//5 4//5
f 5//6 1//6 4//6 8//6
