mtllib wall_12.mtl
o Cube.005
v 6.866059 -0.032259 6.716747
v 6.866059 -0.032259 7.001640
v 9.712724 -0.032259 6.716747
v 9.999993 -0.032259 6.716747
v 9.999993 -0.032259 7.001643
v 9.712724 -0.032259 7.001640
v 7.135338 -0.032259 6.716747
v 7.135338 -0.032259 7.001640
v 9.712724 5.095109 6.716749
v 9.999993 5.095109 6.716749
v 6.866059 3.237547 7.001640
v 6.866059 5.095109 7.001642
v 6.866059 3.225474 6.716747
v 6.866059 1.651077 6.716747
v 6.866059 1.657315 7.001640
v 6.866059 5.095109 6.716749
v 7.135338 5.095109 6.716749
v 9.712724 3.225474 6.716747
v 9.712724 1.651077 6.716747
v 7.135338 5.095109 7.001642
v 9.999993 1.657315 7.001645
v 9.999993 3.237547 7.001645
v 9.999993 5.095109 7.001645
v 9.712724 5.095109 7.001642
vt 1.725448 -0.565993
vt 1.725448 -0.616043
vt 1.690121 -0.616042
vt 1.690121 -0.565993
vt 1.373172 -0.565993
vt 1.373172 -0.616042
vt 1.340058 -0.616042
vt 1.340058 -0.565993
vt -0.684254 1.290772
vt -0.684254 0.600755
vt -0.734303 0.600755
vt -0.734303 1.293329
vt -0.734303 1.941083
vt -0.684254 1.936134
vt 1.340058 -0.523329
vt 1.340058 0.243054
vt 1.373172 0.243054
vt 1.690121 0.243054
vt 1.690121 -0.523329
vt 1.690121 -1.168691
vt 1.690121 -1.858708
vt 1.373172 -1.858708
vt 1.340058 -1.858708
vt 1.340058 -1.168691
vt 1.373172 0.243054
vt 1.340058 0.243054
vt 1.340058 -0.518380
vt 1.340058 -1.166134
vt 1.340058 -1.858708
vt 1.373172 -1.858708
vt 1.690121 -1.858708
vt 1.725448 -1.858708
vt 1.725448 -1.166134
vt 1.725448 -0.518380
vt 1.725448 0.243054
vt 1.690121 0.243054
vt 1.340058 -0.565993
vt 1.340058 -0.616042
vt 1.373172 -0.616042
vt 1.690121 -0.616042
vt 1.725448 -0.616043
vt 1.725448 -0.565993
vt 1.690121 -0.565993
vt 1.373172 -0.565993
vn 0.0000 -1.0000 -0.0000
vn -1.0000 0.0000 0.0000
vn 0.0000 0.0000 -1.0000
vn -0.0000 -0.0000 1.0000
vn 0.0000 1.0000 0.0000
usemtl Material_wall_01.jpg.004
s 1
f 4/1/1 5/2/1 6/3/1 3/4/1
f 7/5/1 8/6/1 2/7/1 1/8/1
f 3/4/1 6/3/1 8/6/1 7/5/1
f 14/9/2 1/10/2 2/11/2 15/12/2 11/13/2 13/14/2
f 13/15/3 16/16/3 17/17/3 9/18/3 18/19/3 19/20/3 3/21/3 7/22/3 1/23/3 14/24/3
f 20/25/4 12/26/4 11/27/4 15/28/4 2/29/4 8/30/4 6/31/4 5/32/4 21/33/4 22/34/4 23/35/4 24/36/4
f 16/37/5 12/38/5 20/39/5 24/40/5 23/41/5 10/42/5 9/43/5 17/44/5
