mtllib wall_02.mtl
o Cube.001
v 6.866066 -0.032257 -1.031475
v 9.712733 -0.032257 -1.031475
v 9.999998 -0.032257 -1.031475
v 10.000001 -0.032257 -1.295867
v 9.712743 -0.032257 -1.295867
v 7.135353 -0.032257 -1.295867
v 7.135346 -0.032257 -1.031475
v 10.000001 5.095111 -1.295866
v 9.712743 5.095111 -1.295866
v 9.712733 5.095111 -1.031474
v 6.866066 5.095111 -1.031474
v 7.135346 5.095111 -1.031474
v 7.135353 5.095111 -1.295866
v 7.135353 3.237549 -1.295866
v 10.000001 3.237549 -1.295866
v 10.000001 1.657317 -1.295867
v 7.135353 1.657317 -1.295867
v 6.866066 3.225476 -1.031474
v 6.866066 1.651079 -1.031475
v 9.712733 3.225476 -1.031474
v 9.712733 1.651079 -1.031475
vt -0.734015 0.841630
vt -0.734015 0.795183
vt -0.769341 0.795183
vt -0.769340 0.841630
vt 1.690124 0.841630
vt 1.690123 0.795183
vt 1.373173 0.795183
vt 1.373174 0.841630
vt 1.690124 0.841630
vt 1.373174 0.841630
vt 1.373173 0.795183
vt 1.690123 0.795183
vt 1.373174 -0.518380
vt 1.373174 0.243054
vt 1.690124 0.243054
vt 1.725449 0.243054
vt 1.725449 -0.518380
vt 1.725449 -1.166134
vt 1.725449 -1.858708
vt 1.690124 -1.858708
vt 1.373174 -1.858708
vt 1.373174 -1.166134
vt 1.690123 -0.523329
vt 1.690123 0.243054
vt 1.373173 0.243054
vt 1.340059 0.243054
vt 1.340059 -0.523329
vt 1.340059 -1.168691
vt 1.340059 -1.858708
vt 1.373173 -1.858708
vt 1.690123 -1.858708
vt 1.690123 -1.168691
vn 0.0000 -1.0000 -0.0000
vn 0.0000 1.0000 0.0000
vn 0.0000 0.0000 -1.0000
vn -0.0000 -0.0000 1.0000
usemtl Material_wall_01.jpg
s 1
f 4/1/1 3/2/1 2/3/1 5/4/1
f 5/5/1 2/6/1 7/7/1 6/8/1
f 9/9/2 13/10/2 12/11/2 10/12/2
f 14/13/3 13/14/3 9/15/3 8/16/3 15/17/3 16/18/3 4/19/3 5/20/3 6/21/3 17/22/3
f 20/23/4 10/24/4 12/25/4 11/26/4 18/27/4 19/28/4 1/29/4 7/30/4 2/31/4 21/32/4
