mtllib wall_14.mtl
o Cube.005
v -2.326800 -0.032259 6.716743
v -2.326799 -0.032257 1.281442
v -2.056109 3.269018 1.281443
v -2.056109 5.095111 1.281444
v -2.056111 5.095109 6.716745
v -2.056111 3.269016 6.716743
v -2.056111 1.123188 6.716743
v -2.056111 -0.032259 6.716743
v -2.056109 -0.032257 1.281442
v -2.056109 1.123190 1.281442
v -2.326799 5.095111 1.281444
v -2.326800 5.095109 6.716745
v -2.326800 3.234568 6.716743
v -2.326799 3.234570 1.281443
v -2.326799 1.111133 1.281442
v -2.326800 1.111131 6.716743
vt 0.977088 0.586602
vt 0.977088 1.488010
vt -0.654218 1.488010
vt -0.654218 0.586602
vt -0.654218 -0.472635
vt -0.654218 -1.042993
vt 0.977088 -1.042993
vt 0.977088 -0.472635
vt 0.242871 0.388859
vt 0.209583 0.388859
vt 0.209583 -0.565993
vt 0.242870 -0.565993
vt -0.684253 -0.519602
vt -0.684253 0.243054
vt 0.270598 0.243054
vt 0.270598 -0.519602
vt 0.270598 -1.390021
vt 0.270598 -1.858708
vt -0.684253 -1.858708
vt -0.684253 -1.390021
vn 1.0000 -0.0000 0.0000
vn 0.0000 1.0000 0.0000
vn -1.0000 0.0000 -0.0000
usemtl Material_floor_01.jpg.002
s 1
f 3/1/1 4/2/1 5/3/1 6/4/1 7/5/1 8/6/1 9/7/1 10/8/1
usemtl Material_wall_01.jpg.004
f 4/9/2 11/10/2 12/11/2 5/12/2
f 13/13/3 12/14/3 11/15/3 14/16/3 15/17/3 2/18/3 1/19/3 16/20/3
