mtllib wall_11.mtl
o Cube.005
v 5.190458 3.237547 7.001640
v 6.866059 3.237547 7.001640
v 6.866059 5.095109 7.001642
v 5.190458 5.095109 7.001642
v 5.190458 3.225474 6.716747
v 6.866059 3.225474 6.716747
v 5.190458 5.095109 6.716749
v 6.866059 5.095109 6.716749
vt 1.134004 -0.518380
vt 1.340058 -0.518380
vt 1.340058 0.243054
vt 1.134004 0.243054
vt 1.134004 -0.565993
vt 1.340058 -0.565993
vt 1.340058 -0.616042
vt 1.134004 -0.616042
vt 1.340058 -0.523329
vt 1.134004 -0.523329
vt 1.134004 0.243054
vt 1.340058 0.243054
vt 1.134004 -0.565993
vt 1.134004 -0.616042
vt 1.340058 -0.616042
vt 1.340058 -0.565993
vn 0.0000 -0.0000 1.0000
vn 0.0000 -0.9991 0.0423
vn 0.0000 0.0000 -1.0000
vn 0.0000 1.0000 0.0000
usemtl Material_wall_01.jpg.004
s 1
f 1/1/1 2/2/1 3/3/1 4/4/1
f 5/5/2 6/6/2 2/7/2 1/8/2
f 6/9/3 5/10/3 7/11/3 8/12/3
f 7/13/4 4/14/4 3/15/4 8/16/4
