mtllib wall_22.mtl
o Cube.005
v -4.363380 5.095111 -1.031473
v -2.752199 5.095111 -1.031473
v -2.752189 5.095111 -1.295865
v -4.363370 5.095111 -1.295865
v -4.363370 3.257209 -1.295866
v -4.363380 3.225476 -1.031474
v -2.752199 3.225476 -1.031474
v -2.752189 3.257209 -1.295866
vt -0.040862 -0.523329
vt 0.157270 -0.523329
vt 0.157270 0.243054
vt -0.040862 0.243054
vt 0.157272 -0.510322
vt -0.040860 -0.510322
vt -0.040860 0.243054
vt 0.157272 0.243054
vt 0.157270 0.795183
vt -0.040862 0.795183
vt -0.040860 0.841630
vt 0.157272 0.841630
vt -0.040860 0.841630
vt -0.040862 0.795183
vt 0.157270 0.795183
vt 0.157272 0.841630
vn 0.0000 -0.0000 1.0000
vn 0.0000 0.0000 -1.0000
vn 0.0000 -0.9929 -0.1192
vn 0.0000 1.0000 -0.0000
usemtl Material_wall_01.jpg.004
s 1
f 6/1/1 7/2/1 2/3/1 1/4/1
f 8/5/2 5/6/2 4/7/2 3/8/2
f 7/9/3 6/10/3 5/11/3 8/12/3
f 4/13/4 1/14/4 2/15/4 3/16/4
