mtllib wall_17.mtl
o Cube.005
v -4.788782 -0.032257 1.281442
v -5.058062 -0.032257 1.281442
v -2.326799 -0.032257 1.281442
v -1.656137 -0.032257 0.997367
v -1.656139 -0.032257 1.281443
v -4.788780 -0.032257 0.997367
v -2.326797 -0.032257 0.997367
v -2.056107 -0.032257 0.997367
v -2.056109 3.269018 1.281443
v -2.056109 5.095111 1.281444
v -2.056109 -0.032257 1.281442
v -2.056109 1.123190 1.281442
v -1.656139 3.269018 1.281443
v -1.656139 5.095111 1.281445
v -1.656139 1.123190 1.281443
v -5.058062 5.095111 1.281444
v -4.788782 5.095111 1.281444
v -4.788780 5.095111 0.997369
v -1.656137 5.095111 0.997369
v -2.056107 5.095111 0.997369
v -2.326797 5.095111 0.997369
v -2.326799 5.095111 1.281444
v -5.058062 1.111133 1.281442
v -5.058062 3.234570 1.281443
v -1.656137 3.225476 0.997369
v -1.656137 1.107950 0.997367
v -4.788780 1.107950 0.997367
v -4.788780 3.225476 0.997369
v -2.326799 3.234570 1.281443
v -2.326799 1.111133 1.281442
vt 1.013747 0.586602
vt 1.013747 1.488010
vt 0.929717 1.488010
vt 0.929717 0.586602
vt 0.929717 -0.472635
vt 0.929717 -1.042993
vt 1.013747 -1.042993
vt 1.013747 -0.472635
vt 0.209583 0.243054
vt 0.242871 0.243054
vt 0.292057 0.243054
vt 0.292057 -0.523329
vt 0.292057 -1.391326
vt 0.292057 -1.858708
vt 0.242871 -1.858708
vt 0.209583 -1.858708
vt -0.093175 -1.858708
vt -0.093175 -1.391326
vt -0.093175 -0.523329
vt -0.093175 0.243054
vt 0.209583 -0.519602
vt 0.209583 0.243054
vt -0.093175 0.243054
vt -0.126289 0.243054
vt -0.126289 -0.519602
vt -0.126289 -1.390021
vt -0.126289 -1.858708
vt -0.093175 -1.858708
vt 0.209583 -1.858708
vt 0.209583 -1.390021
vt 0.270598 1.074385
vt 0.270598 0.600755
vt 0.320504 0.600755
vt 0.320504 1.068138
vt 0.320504 1.936134
vt 0.270598 1.953983
vt 0.292056 0.388859
vt 0.292057 0.438764
vt 0.242871 0.438764
vt 0.209583 0.438764
vt -0.093175 0.438764
vt -0.093175 0.388859
vt 0.209583 0.388859
vt 0.242871 0.388859
vn -0.0000 -0.0000 1.0000
vn -0.0000 0.0000 -1.0000
vn 1.0000 0.0000 0.0000
vn 0.0000 1.0000 -0.0000
usemtl Material_floor_01.jpg.002
s 1
f 13/1/1 14/2/1 10/3/1 9/4/1 12/5/1 11/6/1 5/7/1 15/8/1
usemtl Material_wall_01.jpg.004
f 21/9/2 20/10/2 19/11/2 25/12/2 26/13/2 4/14/2 8/15/2 7/16/2 6/17/2 27/18/2 28/19/2 18/20/2
f 29/21/1 22/22/1 17/23/1 16/24/1 24/25/1 23/26/1 2/27/1 1/28/1 3/29/1 30/30/1
f 15/31/3 5/32/3 4/33/3 26/34/3 25/35/3 13/36/3
f 14/37/4 19/38/4 20/39/4 21/40/4 18/41/4 17/42/4 22/43/4 10/44/4
