mtllib wall_13.mtl
o Cube.005
v 2.326784 -0.032257 1.281445
v 2.326782 -0.032259 6.716743
v 2.056095 -0.032257 1.281445
v 2.056093 -0.032259 6.716743
v 2.056093 3.269016 6.716743
v 2.056093 5.095109 6.716745
v 2.056095 5.095111 1.281447
v 2.056095 3.269018 1.281446
v 2.056095 1.123190 1.281445
v 2.056093 1.123188 6.716743
v 2.326784 5.095111 1.281447
v 2.326782 5.095109 6.716745
v 2.326784 3.225476 1.281446
v 2.326784 1.107950 1.281445
v 2.326782 1.107948 6.716743
v 2.326782 3.225474 6.716743
vt -0.654218 0.586602
vt -0.654218 1.488010
vt 0.977087 1.488010
vt 0.977087 0.586602
vt 0.977087 -0.472635
vt 0.977087 -1.042993
vt -0.654218 -1.042993
vt -0.654218 -0.472635
vt 0.781849 0.388858
vt 0.748561 0.388858
vt 0.748561 -0.565993
vt 0.781849 -0.565993
vt 0.270598 -0.523329
vt 0.270598 0.243054
vt -0.684253 0.243054
vt -0.684253 -0.523329
vt -0.684253 -1.391326
vt -0.684253 -1.858708
vt 0.270598 -1.858708
vt 0.270598 -1.391326
vn -1.0000 0.0000 -0.0000
vn 0.0000 1.0000 0.0000
vn 1.0000 -0.0000 0.0000
usemtl Material_floor_01.jpg.002
s 1
f 5/1/1 6/2/1 7/3/1 8/4/1 9/5/1 3/6/1 4/7/1 10/8/1
usemtl Material_wall_01.jpg.004
f 11/9/2 7/10/2 6/11/2 12/12/2
f 13/13/3 11/14/3 12/15/3 16/16/3 15/17/3 2/18/3 1/19/3 14/20/3
