mtllib wall_19.mtl
o Cube.005
v -5.058060 5.095111 0.814118
v -4.788780 5.095111 0.814118
v -4.788779 5.095111 -0.848222
v -5.058059 5.095111 -0.848222
v -4.788779 3.225476 -0.848222
v -4.788780 3.225476 0.814118
v -5.058060 3.234570 0.814118
v -5.058059 3.234570 -0.848222
vt -0.126289 0.470957
vt -0.093174 0.470957
vt -0.093174 0.762990
vt -0.126289 0.762990
vt -0.093174 0.762990
vt -0.093174 0.470957
vt -0.126289 0.470957
vt -0.126289 0.762990
vt 0.644730 -0.519602
vt 0.352696 -0.519602
vt 0.352696 0.243054
vt 0.644730 0.243054
vt 0.352696 -0.523329
vt 0.644730 -0.523329
vt 0.644730 0.243054
vt 0.352696 0.243054
vn 0.0000 1.0000 0.0000
vn -0.0338 -0.9994 -0.0000
vn -1.0000 0.0000 -0.0000
vn 1.0000 0.0000 0.0000
usemtl Material_wall_01.jpg.004
s 1
f 1/1/1 2/2/1 3/3/1 4/4/1
f 5/5/2 6/6/2 7/7/2 8/8/2
f 8/9/3 7/10/3 1/11/3 4/12/3
f 6/13/4 5/14/4 3/15/4 2/16/4
