mtllib wall_24.mtl
o Cube.005
v -2.056098 -0.032255 -6.717910
v -2.056102 -0.032257 -1.295867
v -2.326791 -0.032257 -1.295867
v -2.326787 -0.032255 -6.717910
v -2.056098 3.225478 -6.717908
v -2.056098 5.095113 -6.717908
v -2.056102 5.095111 -1.295865
v -2.056102 3.225476 -1.295866
v -2.056102 1.107950 -1.295867
v -2.056098 1.107952 -6.717910
v -2.326787 5.095113 -6.717908
v -2.326791 5.095111 -1.295865
v -2.326787 1.119058 -6.717910
v -2.326787 3.257211 -6.717908
v -2.326791 3.257209 -1.295866
v -2.326791 1.119056 -1.295867
vt 1.526770 0.767500
vt 1.526770 1.456482
vt -0.439615 1.456482
vt -0.439615 0.767500
vt -0.439615 -0.012833
vt -0.439615 -0.433012
vt 1.526770 -0.433012
vt 1.526770 -0.012833
vt 0.242872 1.794153
vt 0.209585 1.794153
vt 0.209584 0.841630
vt 0.242872 0.841630
vt 0.723370 -0.510322
vt 0.723370 0.243054
vt 1.675892 0.243054
vt 1.675892 -0.510322
vt 1.675892 -1.386773
vt 1.675892 -1.858708
vt 0.723370 -1.858708
vt 0.723370 -1.386773
vn 1.0000 -0.0000 0.0000
vn 0.0000 1.0000 0.0000
vn -1.0000 0.0000 -0.0000
usemtl Material_brick_wall.jpg.001
s 1
f 5/1/1 6/2/1 7/3/1 8/4/1 9/5/1 2/6/1 1/7/1 10/8/1
usemtl Material_wall_01.jpg.004
f 6/9/2 11/10/2 12/11/2 7/12/2
f 15/13/3 12/14/3 11/15/3 14/16/3 13/17/3 4/18/3 3/19/3 16/20/3
