mtllib wall_16.mtl
o Cube.005
v -1.656139 3.269018 1.281443
v -0.000007 3.269018 1.281446
v -0.000007 5.095111 1.281447
v -1.656139 5.095111 1.281445
v -0.000005 5.095111 0.997369
v -1.656137 5.095111 0.997369
v -0.000005 3.225476 0.997369
v -1.656137 3.225476 0.997369
vt 1.013747 0.586602
vt 1.361688 0.586602
vt 1.361688 1.488010
vt 1.013747 1.488010
vt 0.495716 -0.523329
vt 0.292057 -0.523329
vt 0.292057 0.243054
vt 0.495716 0.243054
vt 0.292057 0.438764
vt 0.495716 0.438764
vt 0.495716 0.388858
vt 0.292056 0.388859
vt 0.495716 0.388858
vt 0.495716 0.438764
vt 0.292057 0.438764
vt 0.292056 0.388859
vn -0.0000 -0.0000 1.0000
vn 0.0000 0.0000 -1.0000
vn -0.0000 -0.9885 0.1515
vn 0.0000 1.0000 -0.0000
usemtl Material_floor_01.jpg.002
s 1
f 1/1/1 2/2/1 3/3/1 4/4/1
usemtl Material_wall_01.jpg.004
f 7/5/2 8/6/2 6/7/2 5/8/2
f 8/9/3 7/10/3 2/11/3 1/12/3
f 3/13/4 5/14/4 6/15/4 4/16/4
