mtllib wall_07.mtl
o Cube.001
v -1.616903 5.095112 -6.717909
v 0.000005 5.095112 -6.717909
v 0.000005 5.095112 -6.998359
v -1.616903 5.095112 -6.998359
v -1.616903 3.225477 -6.717909
v 0.000005 3.225477 -6.717909
v -1.616903 3.237550 -6.998360
v 0.000005 3.237550 -6.998360
vt -0.171410 0.065571
vt 1.142933 0.065571
vt 1.142933 0.921530
vt -0.171410 0.921530
vt 0.495717 1.794153
vt 0.296881 1.794153
vt 0.296881 1.843421
vt 0.495717 1.843421
vt 0.495717 -0.518380
vt 0.296881 -0.518380
vt 0.296881 0.243054
vt 0.495717 0.243054
vt 0.296881 1.843421
vt 0.296881 1.794153
vt 0.495717 1.794153
vt 0.495717 1.843421
vn 0.0000 -0.0000 1.0000
vn 0.0000 -0.9991 -0.0430
vn 0.0000 0.0000 -1.0000
vn 0.0000 1.0000 0.0000
usemtl Material_wall_01.jpg
s 1
f 5/1/1 6/2/1 2/3/1 1/4/1
f 6/5/2 5/6/2 7/7/2 8/8/2
f 8/9/3 7/10/3 4/11/3 3/12/3
f 4/13/4 1/14/4 2/15/4 3/16/4
