mtllib wall_03.mtl
o Cube.001
v 6.866074 -0.032257 -1.295867
v 6.866076 -0.032257 -1.627357
v 6.866066 -0.032257 -1.031475
v 7.135355 -0.032257 -1.627357
v 7.135353 -0.032257 -1.295867
v 6.866074 5.095111 -1.295866
v 6.866066 5.095111 -1.031474
v 7.135346 5.095111 -1.031474
v 7.135353 5.095111 -1.295866
v 7.135355 5.095111 -1.627356
v 6.866076 5.095111 -1.627356
v 7.135355 1.657317 -1.627357
v 6.866076 1.651079 -1.627357
v 6.866076 3.225476 -1.627357
v 7.135355 3.237549 -1.627357
v 7.135353 3.237549 -1.295866
v 7.135353 1.657317 -1.295867
v 6.866066 3.225476 -1.031474
v 6.866066 1.651079 -1.031475
vt 1.373174 0.899865
vt 1.373174 0.841630
vt 1.340060 0.841630
vt 1.340060 0.899865
vt 1.340060 0.841630
vt 1.340059 0.795183
vt 1.373173 0.795183
vt 1.373174 0.841630
vt 1.373174 0.899865
vt 1.340060 0.899865
vt 1.373174 1.293329
vt 1.373174 0.600755
vt 1.340060 0.600755
vt 1.340060 1.290772
vt 1.340060 1.936134
vt 1.373174 1.941083
vt 0.781604 1.293329
vt 0.781604 1.941083
vt 0.781604 2.702517
vt 0.723370 2.702517
vt 0.723370 1.941083
vt 0.723370 1.293329
vt 0.723370 0.600755
vt 0.781604 0.600755
vt 0.676922 -0.523329
vt 0.676922 0.243054
vt 0.723370 0.243054
vt 0.781604 0.243054
vt 0.781604 -0.523329
vt 0.781604 -1.168691
vt 0.781604 -1.858708
vt 0.723370 -1.858708
vt 0.676922 -1.858708
vt 0.676922 -1.168691
vn 0.0000 -1.0000 -0.0000
vn -0.8944 -0.4473 -0.0000
vn -0.7071 -0.7071 -0.0000
vn 0.0000 1.0000 0.0000
vn -0.0000 0.0000 -1.0000
vn 1.0000 0.0000 0.0000
vn -1.0000 -0.0000 -0.0000
usemtl Material_wall_01.jpg
s 1
f 4/1/1 5/2/1 1/3/2 2/4/3
f 6/5/4 7/6/4 8/7/4 9/8/4 10/9/4 11/10/4
f 12/11/5 4/12/5 2/13/5 13/14/5 14/15/5 15/16/5
f 12/17/6 15/18/6 10/19/6 9/20/6 16/21/6 17/22/6 5/23/6 4/24/6
f 18/25/7 7/26/7 6/27/7 11/28/7 14/29/7 13/30/7 2/31/3 1/32/2 3/33/7 19/34/7
