mtllib wall_08.mtl
o Cube.001
v -2.056098 -0.032256 -6.717910
v -7.723856 -0.032256 -6.717910
v -9.712733 -0.032256 -6.717910
v -2.326787 -0.032256 -6.717910
v -4.788769 -0.032256 -6.717910
v -5.058048 -0.032256 -6.717910
v -1.616903 -0.032256 -6.717910
v -1.616903 -0.032256 -6.998360
v -9.999999 -0.032256 -6.717910
v -7.723855 -0.032256 -6.998360
v -9.712732 -0.032256 -6.998360
v -9.999999 -0.032256 -6.998360
v -2.056098 -0.032256 -6.998360
v -2.326787 -0.032256 -6.998360
v -4.788768 -0.032256 -6.998360
v -5.058048 -0.032256 -6.998360
v -2.056098 5.095112 -6.717909
v -2.326787 5.095112 -6.717909
v -9.712733 5.095112 -6.717909
v -9.999999 5.095112 -6.717909
v -7.723855 5.095112 -6.998359
v -9.712732 5.095112 -6.998359
v -9.999999 5.095112 -6.998359
v -7.723856 5.095112 -6.717909
v -5.058048 5.095112 -6.717909
v -4.788769 5.095112 -6.717909
v -1.616903 5.095112 -6.717909
v -1.616903 5.095112 -6.998359
v -2.056098 5.095112 -6.998359
v -2.326787 5.095112 -6.998359
v -4.788768 5.095112 -6.998359
v -5.058048 5.095112 -6.998359
v -7.723856 3.257210 -6.717909
v -5.058048 3.257210 -6.717909
v -1.616903 3.225477 -6.717909
v -1.616903 3.237550 -6.998360
v -1.616903 1.107951 -6.717910
v -1.616903 1.112176 -6.998360
v -9.712733 3.257210 -6.717909
v -9.712733 1.119057 -6.717910
v -7.723855 3.237550 -6.998360
v -7.723856 1.119057 -6.717910
v -7.723855 1.112176 -6.998360
v -9.999999 3.237550 -6.998360
v -9.999999 1.112176 -6.998360
v -5.058048 1.119057 -6.717910
v -5.058048 1.112176 -6.998360
v -5.058048 3.237550 -6.998360
v -2.326787 1.119057 -6.717910
v -2.326787 3.257210 -6.717909
vt -0.454110 1.843421
vt -0.454110 1.794153
vt -0.698689 1.794153
vt -0.698689 1.843421
vt -0.734015 1.794153
vt -0.734015 1.843421
vt 0.296881 1.843421
vt 0.296881 1.794153
vt 0.242872 1.794153
vt 0.242872 1.843421
vt 0.209585 1.794153
vt 0.209585 1.843421
vt -0.093173 1.794153
vt -0.093173 1.843421
vt -0.126287 1.794153
vt -0.126287 1.843421
vt -0.454110 1.843421
vt -0.698689 1.843421
vt -0.734015 1.843421
vt -0.734015 1.794153
vt -0.698689 1.794153
vt -0.454110 1.794153
vt -0.126287 1.794153
vt -0.093173 1.794153
vt 0.209585 1.794153
vt 0.242872 1.794153
vt 0.296881 1.794153
vt 0.296881 1.843421
vt 0.242872 1.843421
vt 0.209585 1.843421
vt -0.093173 1.843421
vt -0.126287 1.843421
vt -0.454110 -0.510322
vt -0.126287 -0.510322
vt -0.126287 0.243054
vt -0.454110 0.243054
vt 1.675892 1.068138
vt 1.675892 0.600755
vt 1.725161 0.600755
vt 1.725161 1.069870
vt 1.725161 1.941083
vt 1.675892 1.936134
vt 1.725161 -0.518380
vt 1.675892 -0.510322
vt 1.675892 -1.386773
vt 1.725161 -1.389593
vt -0.454110 1.843421
vt -0.454110 1.794153
vt -0.126287 1.794153
vt -0.126287 1.843421
vt -0.126287 -0.518380
vt -0.454110 -0.518380
vt -0.454110 0.243054
vt -0.126287 0.243054
vt -0.093173 0.243054
vt -0.126287 -1.386773
vt -0.126287 -1.858708
vt -0.093173 -1.858708
vt 0.209585 -1.858708
vt 0.209585 -1.386773
vt 0.209585 -0.510322
vt 0.209585 0.243054
vt -0.126287 0.600755
vt -0.454110 0.600755
vt -0.454110 1.069870
vt -0.126287 1.069870
vt 0.242872 0.243054
vt 0.296881 0.243054
vt 0.296881 -0.518380
vt 0.296881 -1.389593
vt 0.296881 -1.858708
vt 0.242872 -1.858708
vt 0.209585 -1.858708
vt -0.093173 -1.858708
vt -0.126287 -1.858708
vt -0.126287 -1.389593
vt -0.093173 0.243054
vt 0.209585 0.243054
vt -0.734015 -0.518380
vt -0.734015 0.243054
vt -0.698689 0.243054
vt -0.454110 -1.389593
vt -0.454110 -1.858708
vt -0.698689 -1.858708
vt -0.734015 -1.858708
vt -0.734015 -1.389593
vt -0.454110 0.600755
vt -0.126287 0.600755
vt -0.126287 1.072690
vt -0.454110 1.072690
vt -0.454110 1.949142
vt -0.454110 2.702517
vt -0.698689 2.702517
vt -0.698689 1.949142
vt -0.698689 1.072690
vt -0.698689 0.600755
vt 1.725161 1.069870
vt 1.675892 1.072690
vt 1.675892 1.949142
vt 1.725161 1.941083
vt -0.454110 1.843421
vt -0.126287 1.843421
vt -0.126287 1.794153
vt -0.454110 1.794153
vn 0.0000 -1.0000 -0.0000
vn -0.0000 -0.7071 0.7071
vn -0.0000 -0.8944 0.4472
vn 0.0000 1.0000 -0.0000
vn -0.0000 -0.0000 1.0000
vn 1.0000 0.0000 0.0000
vn 0.0000 0.9997 -0.0245
vn 0.0000 0.0000 -1.0000
vn -1.0000 0.0000 0.0000
vn 0.0000 -0.9976 0.0699
usemtl Material_wall_01.jpg
s 1
f 10/1/1 2/2/2 3/3/3 11/4/1
f 11/4/1 3/3/3 9/5/1 12/6/1
f 8/7/1 7/8/1 1/9/1 13/10/1
f 13/10/1 1/9/1 4/11/3 14/12/1
f 14/12/1 4/11/3 5/13/2 15/14/1
f 15/14/1 5/13/2 6/15/2 16/16/1
f 21/17/4 22/18/4 23/19/4 20/20/4 19/21/4 24/22/4 25/23/4 26/24/4 18/25/4 17/26/4 27/27/4 28/28/4 29/29/4 30/30/4 31/31/4 32/32/4
f 33/33/5 34/34/5 25/35/5 24/36/5
f 37/37/6 7/38/6 8/39/6 38/40/6 36/41/6 35/42/6
f 41/43/6 33/44/6 42/45/6 43/46/6
f 43/47/7 42/48/7 46/49/7 47/50/7
f 48/51/8 41/52/8 21/53/8 32/54/8
f 26/55/5 25/35/5 34/34/5 46/56/5 6/57/2 5/58/2 4/59/3 49/60/5 50/61/5 18/62/5
f 16/16/1 6/15/2 2/2/2 10/1/1
f 16/63/8 10/64/8 43/65/8 47/66/8
f 29/67/8 28/68/8 36/69/8 38/70/8 8/71/8 13/72/8 14/73/8 15/74/8 16/75/8 47/76/8 48/51/8 32/54/8 31/77/8 30/78/8
f 44/79/8 23/80/8 22/81/8 21/53/8 41/52/8 43/82/8 10/83/8 11/84/8 12/85/8 45/86/8
f 2/87/2 6/88/2 46/89/5 42/90/5
f 42/90/5 33/91/5 24/92/5 19/93/5 39/94/5 40/95/5 3/96/3 2/87/2
f 47/97/9 46/98/9 34/99/9 48/100/9
f 41/101/10 48/102/10 34/103/10 33/104/10
