mtllib wall_09.mtl
o Cube.001
v -9.712733 -0.032256 -6.717910
v -9.712740 -0.032257 -1.295867
v -9.712745 -0.032257 -1.031475
v -9.712751 -0.032258 6.716743
v -9.712747 5.095111 0.997368
v -9.712749 5.095111 1.281443
v -9.712751 5.095110 6.716744
v -9.712751 3.234569 6.716743
v -9.712751 1.111132 6.716743
v -9.712749 -0.032257 1.281442
v -9.712747 -0.032257 0.997367
v -9.712745 1.111133 -1.031475
v -9.712745 3.234570 -1.031474
v -9.712745 5.095111 -1.031474
v -9.712751 -0.032258 7.001637
v -10.000004 -0.032258 7.001637
v -10.000004 -0.032258 6.716743
v -10.000001 -0.032257 -1.295867
v -9.999999 -0.032256 -6.717910
v -10.000002 -0.032257 -1.031475
v -10.000002 -0.032257 0.997367
v -10.000004 -0.032257 1.281442
v -9.712732 -0.032256 -6.998360
v -9.999999 -0.032256 -6.998360
v -9.712733 5.095112 -6.717909
v -9.999999 5.095112 -6.717909
v -10.000001 5.095111 -1.295866
v -10.000002 5.095111 -1.031474
v -10.000002 5.095111 0.997368
v -10.000004 5.095111 1.281443
v -10.000004 5.095110 6.716744
v -9.712740 5.095111 -1.295866
v -9.999999 5.095112 -6.998359
v -9.712733 3.257210 -6.717909
v -9.712740 3.257209 -1.295866
v -9.712740 1.119056 -1.295867
v -9.712733 1.119057 -6.717910
v -9.999999 3.237550 -6.998360
v -9.999999 1.112176 -6.998360
v -10.000004 1.112174 7.001637
v -10.000004 3.237548 7.001637
v -10.000004 5.095110 7.001638
vt 0.320504 0.243054
vt 0.270598 0.243054
vt -0.684253 0.243054
vt -0.684253 -0.519602
vt -0.684253 -1.390021
vt -0.684253 -1.858708
vt 0.270598 -1.858708
vt 0.320504 -1.858708
vt 0.676922 -1.858708
vt 0.676922 -1.390021
vt 0.676922 -0.519602
vt 0.676922 0.243054
vt -0.698691 -0.565993
vt -0.698691 -0.616042
vt -0.734015 -0.616042
vt -0.734015 -0.565993
vt -0.698689 1.794153
vt -0.698689 0.841630
vt -0.734015 0.841630
vt -0.734015 1.794153
vt -0.698690 0.795183
vt -0.734015 0.795183
vt -0.698690 0.438764
vt -0.734015 0.438764
vt -0.698691 0.388859
vt -0.734015 0.388859
vt -0.698689 1.843421
vt -0.734015 1.843421
vt -0.698689 1.794153
vt -0.734015 1.794153
vt -0.734015 0.841630
vt -0.734015 0.795183
vt -0.734015 0.438764
vt -0.734015 0.388859
vt -0.734015 -0.565993
vt -0.698691 -0.565993
vt -0.698691 0.388859
vt -0.698690 0.438764
vt -0.698690 0.795183
vt -0.698689 0.841630
vt 1.675892 -0.510322
vt 1.675892 0.243054
vt 0.723370 0.243054
vt 0.723370 -0.510322
vt 0.723370 -1.386773
vt 0.723370 -1.858708
vt 1.675892 -1.858708
vt 1.675892 -1.386773
vt 1.675892 0.243054
vt 1.725161 0.243054
vt 1.725161 -0.518380
vt 1.725161 -1.389593
vt 1.725161 -1.858708
vt 1.675892 -1.858708
vt 0.723370 -1.858708
vt 0.676922 -1.858708
vt 0.320504 -1.858708
vt 0.270598 -1.858708
vt -0.684253 -1.858708
vt -0.734302 -1.858708
vt -0.734302 -1.389593
vt -0.734302 -0.518380
vt -0.734302 0.243054
vt -0.684253 0.243054
vt 0.270598 0.243054
vt 0.320504 0.243054
vt 0.676922 0.243054
vt 0.723370 0.243054
vn 1.0000 -0.0000 0.0000
vn 0.0000 -1.0000 -0.0000
vn 0.4472 -0.8944 0.0000
vn 0.0000 1.0000 0.0000
vn -1.0000 0.0000 -0.0000
usemtl Material_wall_01.jpg
s 1
f 5/1/1 6/2/1 7/3/1 8/4/1 9/5/1 4/6/1 10/7/1 11/8/1 3/9/1 12/10/1 13/11/1 14/12/1
f 4/13/2 15/14/2 16/15/2 17/16/2
f 1/17/3 2/18/3 18/19/2 19/20/2
f 2/18/3 3/21/2 20/22/2 18/19/2
f 3/21/2 11/23/2 21/24/2 20/22/2
f 11/23/2 10/25/2 22/26/2 21/24/2
f 23/27/2 1/17/3 19/20/2 24/28/2
f 10/25/2 4/13/2 17/16/2 22/26/2
f 25/29/4 26/30/4 27/31/4 28/32/4 29/33/4 30/34/4 31/35/4 7/36/4 6/37/4 5/38/4 14/39/4 32/40/4
f 34/41/1 25/42/1 32/43/1 35/44/1 36/45/1 2/46/3 1/47/3 37/48/1
f 26/49/5 33/50/5 38/51/5 39/52/5 24/53/5 19/54/5 18/55/5 20/56/5 21/57/5 22/58/5 17/59/5 16/60/5 40/61/5 41/62/5 42/63/5 31/64/5 30/65/5 29/66/5 28/67/5 27/68/5
