mtllib wall_04.mtl
o Cube.001
v 7.135355 5.095111 -1.627356
v 7.135357 5.095111 -3.327553
v 6.866078 5.095111 -3.327553
v 6.866076 5.095111 -1.627356
v 6.866076 3.225476 -1.627357
v 7.135355 3.237549 -1.627357
v 7.135357 3.237550 -3.327554
v 6.866077 3.225477 -3.327554
vt 0.781604 -0.518380
vt 1.080288 -0.518380
vt 1.080288 0.243054
vt 0.781604 0.243054
vt 1.080288 -0.523329
vt 0.781604 -0.523329
vt 0.781604 0.243054
vt 1.080288 0.243054
vt 1.340060 0.899865
vt 1.340060 1.198549
vt 1.373174 1.198549
vt 1.373174 0.899865
vt 1.340060 0.899865
vt 1.373174 0.899865
vt 1.373174 1.198549
vt 1.340060 1.198549
vn 1.0000 0.0000 0.0000
vn -1.0000 0.0000 -0.0000
vn 0.0448 -0.9990 -0.0000
vn 0.0000 1.0000 0.0000
usemtl Material_wall_01.jpg
s 1
f 6/1/1 7/2/1 2/3/1 1/4/1
f 8/5/2 5/6/2 4/7/2 3/8/2
f 5/9/3 8/10/3 7/11/3 6/12/3
f 4/13/4 1/14/4 2/15/4 3/16/4
