mtllib wall_15.mtl
o Cube.005
v -0.000005 -0.032257 0.997367
v -0.000007 -0.032257 1.281445
v 4.327147 -0.032257 0.997367
v 4.327144 -0.032257 1.281445
v 2.326784 -0.032257 1.281445
v -0.000007 3.269018 1.281446
v -0.000007 5.095111 1.281447
v 2.056095 -0.032257 1.281445
v 2.056095 5.095111 1.281447
v 2.056095 3.269018 1.281446
v 2.056095 1.123190 1.281445
v -0.000007 1.123190 1.281445
v 2.326786 -0.032257 0.997367
v 2.056097 -0.032257 0.997367
v 2.326784 5.095111 1.281447
v 2.326786 5.095111 0.997369
v 2.056097 5.095111 0.997369
v -0.000005 5.095111 0.997369
v 4.327144 5.095111 1.281447
v 4.327147 5.095111 0.997369
v -0.000005 3.225476 0.997369
v -0.000005 1.107950 0.997367
v 4.327144 3.225476 1.281446
v 2.326784 3.225476 1.281446
v 2.326784 1.107950 1.281445
v 4.327144 1.107950 1.281445
v 4.327147 3.225476 0.997369
v 4.327147 1.107950 0.997367
vt 1.793658 0.586602
vt 1.793658 1.488010
vt 1.361688 1.488010
vt 1.361688 0.586602
vt 1.361688 -0.472635
vt 1.361688 -1.042993
vt 1.793658 -1.042993
vt 1.793658 -0.472635
vt 0.781849 0.438764
vt 0.748562 0.438764
vt 0.495716 0.438764
vt 0.495716 0.388858
vt 0.748561 0.388858
vt 0.781849 0.388858
vt 1.027839 0.388858
vt 1.027840 0.438764
vt 0.320504 1.068138
vt 0.320504 0.600755
vt 0.270598 0.600755
vt 0.270598 1.074385
vt 0.270598 1.953983
vt 0.320504 1.936134
vt 1.027839 -0.523329
vt 1.027839 0.243054
vt 0.781849 0.243054
vt 0.781849 -0.523329
vt 0.781849 -1.391326
vt 0.781849 -1.858708
vt 1.027839 -1.858708
vt 1.027839 -1.391326
vt 0.320504 -0.523329
vt 0.320504 0.243054
vt 0.270598 0.243054
vt 0.270598 -0.523329
vt 0.270598 -1.391326
vt 0.270598 -1.858708
vt 0.320504 -1.858708
vt 0.320504 -1.391326
vt 0.495716 -0.523329
vt 0.495716 0.243054
vt 0.748562 0.243054
vt 0.781849 0.243054
vt 1.027840 0.243054
vt 1.027840 -0.523329
vt 1.027840 -1.391326
vt 1.027840 -1.858708
vt 0.781849 -1.858708
vt 0.748562 -1.858708
vt 0.495716 -1.858708
vt 0.495716 -1.391326
vn 0.0000 -0.0000 1.0000
vn 0.0000 1.0000 -0.0000
vn -1.0000 0.0000 -0.0000
vn 1.0000 0.0000 0.0000
vn 0.0000 0.0000 -1.0000
usemtl Material_floor_01.jpg.002
s 1
f 10/1/1 9/2/1 7/3/1 6/4/1 12/5/1 2/6/1 8/7/1 11/8/1
usemtl Material_wall_01.jpg.004
f 16/9/2 17/10/2 18/11/2 7/12/2 9/13/2 15/14/2 19/15/2 20/16/2
f 22/17/3 1/18/3 2/19/3 12/20/3 6/21/3 21/22/3
f 23/23/1 19/24/1 15/25/1 24/26/1 25/27/1 5/28/1 4/29/1 26/30/1
f 27/31/4 20/32/4 19/33/4 23/34/4 26/35/4 4/36/4 3/37/4 28/38/4
f 21/39/5 18/40/5 17/41/5 16/42/5 20/43/5 27/44/5 28/45/5 3/46/5 13/47/5 14/48/5 1/49/5 22/50/5
