mtllib wardrobe.mtl
o Cube.003
v -8.454947 3.860546 3.270130
v -9.646226 3.860546 3.270130
v -9.646226 3.860546 6.657260
v -8.454948 3.860546 6.657262
v -8.454947 -0.012057 3.270130
v -8.454947 -0.012057 6.657261
v -9.646226 -0.012057 6.657260
v -9.646226 -0.012057 3.270129
vt 0.237975 0.652120
vt 0.000033 0.652120
vt 0.000033 0.515615
vt 0.237975 0.515615
vt 0.999998 0.000000
vt 0.988361 0.998358
vt 0.000002 1.000000
vt 0.002910 0.001641
vt 0.107036 0.022906
vt 0.107036 0.347879
vt 0.000033 0.347880
vt 0.002942 0.022906
vt 0.107036 0.652120
vt 0.107036 0.999967
vt 0.000033 0.999967
vt 0.000000 0.000000
vt 0.000000 0.000000
vt 0.000000 0.000000
vt 0.000000 0.000000
vt 0.000000 0.000000
vt 0.000000 0.000000
vn 0.0000 1.0000 -0.0000
vn 1.0000 0.0000 0.0000
vn -0.0000 -0.0000 1.0000
vn 0.0000 0.0000 -1.0000
vn 0.0000 -1.0000 -0.0000
vn -1.0000 -0.0000 0.0000
usemtl Material.003
s 1
f 1/1/1 2/2/1 3/3/1 4/4/1
f 5/5/2 1/6/2 4/7/2 6/8/2
f 6/9/3 4/10/3 3/11/3 7/12/3
f 1/13/4 5/14/4 8/15/4 2/2/4
usemtl Material_NONE.001
f 5/16/5 6/17/5 7/18/5 8/19/5
f 7/18/6 3/20/6 2/21/6 8/19/6
